<?xml version="1.0"?><svg width="640" height="479.99999999999994" xmlns="http://www.w3.org/2000/svg">
 <!-- Created with SVG-edit - http://svg-edit.googlecode.com/ -->
 <title>About Icon</title>
 <g>
  <title>Layer 1</title>
  <defs>
   <pattern id="gridpattern" patternUnits="userSpaceOnUse" x="0" y="0" width="100" height="100">
    <image id="svg_2" x="0" y="0" width="100" height="100"/>
   </pattern>
   <pattern id="svg_24" patternUnits="userSpaceOnUse" x="0" y="0" width="100" height="100">
    <image id="svg_25" x="0" y="0" width="100" height="100"/>
   </pattern>
  </defs>
  <ellipse fill="#ffffff" stroke="#999999" stroke-width="5" cx="331" cy="240" id="svg_1" rx="252" ry="252"/>
  <ellipse fill="#ffffff" stroke="#999999" stroke-width="5" cx="329.999999" cy="240.999995" rx="230.000005" ry="230.000005" id="svg_3"/>
  <rect fill="#ffffff" stroke="#999999" stroke-width="0" x="290.000024" y="278.000009" width="91.999996" height="104.000005" id="svg_9"/>
  <g id="svg_32">
   <title fill="#bfbfbf">Cutlery</title>
   <metadata fill="#bfbfbf" id="svg_31">image/svg+xmlCutleryOct 22, 2009Mois Moshevcutleryknifeforkspoontoolsfood</metadata>
   <g transform="matrix(1.08177, 0, 0, 1.08177, 27.8309, 90.8568)" id="svg_33">
    <title fill="#bfbfbf">Layer 1</title>
    <g id="svg_26">
     <path fill="#bfbfbf" fill-rule="nonzero" id="svg_30" d="m268.455414,120.311584c0,16.010773 -15.288147,127.355408 -6.627716,167.789398c3.618408,16.893707 22.516022,14.692474 25.662964,0c7.992188,-37.314178 -6.315247,-71.656403 -6.315247,-168.673401c0,-13.281815 10.200012,-13.624916 15.720032,-30.760956c4.928711,-15.300491 -2.029175,-97.701073 -4.271118,-97.701073c-2.558197,0 -1.305969,71.35759 -6.155579,71.35759c-4.892609,0 -2.418274,-70.389862 -5.512573,-71.35759c-3.09433,-0.96777 -0.824829,71.35759 -6.549652,71.35759c-5.782562,0 -2.0242,-71.35759 -5.11853,-71.35759c-3.094299,0 -2.223755,71.35759 -6.943695,71.35759c-5.196106,0 -2.403717,-71.35759 -4.724457,-71.35759c-3.944519,0 -8.564453,77.49585 -6.111115,93.864632c2.453339,16.368782 16.946686,19.470596 16.946686,35.4814z"/>
     <path fill="#bfbfbf" fill-rule="nonzero" id="svg_29" d="m344.944244,116.879089c0,97.420624 -15.580109,137.032745 -6.627716,171.429657c4.26532,16.388062 22.516052,14.456299 25.662964,0c7.25293,-33.318512 -6.315247,-75.971741 -6.315247,-171.429657c0,-11.109955 27.644653,-9.200752 27.644653,-47.177284c0,-47.530521 -17.591675,-79.003189 -34.358215,-79.003189c-15.647736,0 -32.635132,34.502373 -32.635132,79.003189c0,35.661148 26.628693,38.020287 26.628693,47.177284z"/>
     <path fill="#bfbfbf" fill-rule="nonzero" id="svg_28" d="m192.087891,155.679077c0,79.144989 -15.580109,106.856995 -6.627716,134.800995c4.26532,13.313995 22.515717,11.744995 25.66272,0c7.252991,-27.068024 -6.315002,-46.942017 -6.315002,-133.731995c0,-10.617004 15.195007,-25.421997 15.195007,-52.781006c0,-48.641998 -6.891998,-114.768997 -21.9086,-114.768997c-14.395691,0 -11.099609,85.242996 -11.099609,131.863007c0,20.023972 5.093201,25.235977 5.093201,34.617996l0,0l0,0z"/>
     <path opacity="0.3" fill="#bfbfbf" fill-opacity="0.776905" fill-rule="nonzero" id="svg_27" d="m256.659454,54.698135a0.46613,0.90798 0 1 1 -0.932281,-0.224709a0.46613,0.90798 0 1 1 0.932281,0.224709z"/>
    </g>
   </g>
  </g>
 </g>
</svg>